<svg xmlns="http://www.w3.org/2000/svg" viewBox="0 0 244.3 220">
	<path fill="#FFF" d="M191 163.9c0 1.9-1.6 3.4-3.5 3.5H56.8c-1.9-.1-3.5-1.6-3.5-3.5V3.5c0-1.9 1.6-3.5 3.5-3.5h130.7c1.9 0 3.5 1.6 3.5 3.5v160.4z"></path>
	<path fill="#E52713" d="M58.2 160.5V6.9c0-1 .8-1.9 1.9-1.9h124c1 0 1.9.9 1.9 1.9v153.6c0 1-.9 1.9-1.9 1.9h-124c-1 0-1.9-.9-1.9-1.9"></path>
	<path fill="#FFF" d="M151.1 94.4c7.1-7.8 10.6-16.4 10.6-26.3 0-21.8-17.7-39.5-39.5-39.5S82.7 46.2 82.7 67.9c0 21.6 17.7 39.1 39.5 39.1 7.9 0 16.4-2.7 22.4-7.2.5.6 6.1 6.6 6.1 6.6h12.1c0-.1-11.1-11.4-11.7-12m-6.5-6.7c-.7-.8-12.7-13.2-12.7-13.2h-12.4s17.6 17.7 18.5 18.6c-4.3 3.1-10.4 5.1-15.8 5.1-16.6 0-30.1-13.6-30.1-30.4 0-16.8 13.5-30.4 30.1-30.4s30.1 13.6 30.1 30.4c0 7.7-2.5 14.2-7.7 19.9M84.8 137.6v-21.2h14.3v2.5H87.6v6.6h10v2.5h-10v9.6h-2.8M102.8 137.6v-21.2h9.4c1.9 0 3.3.2 4.3.6 1 .4 1.8 1 2.3 2 .6 1 .9 2 .9 3.2 0 1.5-.5 2.8-1.5 3.8s-2.5 1.7-4.5 2c.7.4 1.3.7 1.7 1.1.8.8 1.6 1.7 2.3 2.8l3.7 5.8h-3.5l-2.8-4.4c-.8-1.3-1.5-2.2-2-2.9-.5-.7-1-1.1-1.4-1.4-.4-.3-.8-.5-1.3-.6-.3-.1-.8-.1-1.6-.1h-3.2v9.4h-2.8m2.8-11.9h6c1.3 0 2.3-.1 3-.4.7-.3 1.3-.7 1.6-1.3.4-.6.6-1.2.6-1.9 0-1-.4-1.8-1.1-2.5-.7-.6-1.9-1-3.4-1h-6.7v7.1zM124.2 137.6v-21.2h15.3v2.5H127v6.5h11.7v2.5H127v7.2h12.9v2.5h-15.7M143.9 137.6v-21.2h15.2v2.5h-12.4v6.5h11.7v2.5h-11.7v7.2h12.9v2.5h-15.7"></path>
</svg>